<svg width="16" height="16" viewBox="0 0 16 16" fill="none" xmlns="http://www.w3.org/2000/svg">
<g clip-path="url(#clip0_1583_61)">
<path d="M15.7608 9.93474C14.6919 14.2227 10.3475 16.8294 6.06563 15.7604C1.7775 14.6916 -0.829121 10.3473 0.239816 6.0655C1.30869 1.7775 5.64682 -0.829128 9.93494 0.239809C14.2168 1.30243 16.8298 5.64668 15.7608 9.93474Z" fill="url(#paint0_linear_1583_61)"/>
<path d="M11.8091 7.00312C11.9653 5.94062 11.1591 5.36562 10.0466 4.98437L10.4091 3.54062L9.53406 3.32187L9.18406 4.72812C8.95281 4.67187 8.71531 4.61562 8.47781 4.56562L8.82781 3.15312L7.95281 2.93437L7.59656 4.37187C7.40281 4.32812 7.21531 4.28437 7.03406 4.24062V4.23437L5.82156 3.93437L5.59031 4.87187C5.59031 4.87187 6.24031 5.02187 6.22781 5.02812C6.58406 5.11562 6.64656 5.35312 6.63406 5.54062L6.22156 7.18437C6.24656 7.19062 6.27781 7.19687 6.31531 7.21562C6.28406 7.20937 6.25281 7.20312 6.22156 7.19062L5.64656 9.49062C5.60281 9.59687 5.49031 9.75937 5.24656 9.69687C5.25281 9.70937 4.60906 9.54062 4.60906 9.54062L4.17156 10.5469L5.31531 10.8344C5.52781 10.8906 5.73406 10.9406 5.94031 10.9969L5.57781 12.4531L6.45281 12.6719L6.81531 11.2281C7.05281 11.2906 7.29031 11.3531 7.51531 11.4094L7.15906 12.8469L8.03406 13.0656L8.39656 11.6094C9.89656 11.8906 11.0216 11.7781 11.4903 10.4219C11.8716 9.33437 11.4716 8.70312 10.6841 8.29062C11.2653 8.15937 11.6966 7.77812 11.8091 7.00312ZM9.80281 9.81562C9.53406 10.9031 7.69656 10.3156 7.10281 10.1656L7.58406 8.23437C8.17781 8.38437 10.0903 8.67812 9.80281 9.81562ZM10.0778 6.98437C9.82781 7.97812 8.30281 7.47187 7.80906 7.34687L8.24656 5.59687C8.74031 5.72187 10.3341 5.95312 10.0778 6.98437Z" fill="white"/>
</g>
<defs>
<linearGradient id="paint0_linear_1583_61" x1="7.99581" y1="-0.0037103" x2="7.99581" y2="15.9985" gradientUnits="userSpaceOnUse">
<stop stop-color="#F9AA4B"/>
<stop offset="1" stop-color="#F7931A"/>
</linearGradient>
<clipPath id="clip0_1583_61">
<rect width="16" height="16" fill="white"/>
</clipPath>
</defs>
</svg>
