<svg width="36" height="36" viewBox="0 0 36 36" fill="none" xmlns="http://www.w3.org/2000/svg">
<path d="M6.399 28.5829C6.399 28.5829 6.24037 28.476 5.994 28.2892C2.3085 25.4362 0 21.3052 0 16.7119C0 8.13937 8.05613 1.17787 17.9944 1.17787C27.9326 1.17787 36 8.13937 36 16.7119C36 25.2832 27.9439 32.2447 18.0056 32.2447C16.7333 32.2447 15.4631 32.1334 14.2155 31.8994L13.8229 31.8352C11.2973 33.4687 7.61737 34.8176 4.39537 34.8176C3.393 34.8176 2.92387 33.9975 3.56287 33.165C4.53487 31.9691 5.877 30.06 6.399 28.584V28.5829ZM8.5905 21.7969C9.6615 23.3977 12.9904 26.127 17.9696 26.127H18.0405C23.0321 26.127 26.3554 23.3854 27.4219 21.7969C27.6348 21.5529 27.7768 21.2553 27.8325 20.9362C27.8465 20.7422 27.7836 20.5504 27.6572 20.4024C27.5309 20.2543 27.3514 20.162 27.1575 20.1454C27.1474 20.1397 27.1406 20.1397 27.1294 20.1397C26.9528 20.1488 26.7823 20.2077 26.6378 20.3096C24.1996 22.2969 21.1522 23.3853 18.0067 23.3921C14.8494 23.4272 11.7837 22.3318 9.36337 20.304C9.2356 20.1871 9.06856 20.1224 8.89537 20.1229C8.496 20.1229 8.17988 20.439 8.1675 20.8327C8.21599 21.1847 8.35561 21.5178 8.5725 21.7991L8.5905 21.7969Z" fill="white"/>
</svg>
