<svg width="32" height="32" viewBox="0 0 32 32" fill="none" xmlns="http://www.w3.org/2000/svg">
<g clip-path="url(#clip0_1897_60564)">
<path d="M28.205 -0.00013114L24.785 0.399869C21.5279 0.766298 18.4911 2.22566 16.17 4.53987L10.825 9.88987L6.585 9.42487L0 15.9999L6.455 16.8099C8.125 21.0599 10.99 24.0199 15.18 25.5349L16 31.9999L22.575 25.4149L22.11 21.1749L27.46 15.8299C29.7612 13.5273 31.2178 10.5154 31.594 7.28187L31.6 7.21487L32 3.79487C32.0603 3.28055 32.003 2.75925 31.8325 2.27029C31.662 1.78133 31.3826 1.33748 31.0155 0.972224C30.6484 0.606968 30.2032 0.329841 29.7134 0.16175C29.2236 -0.00634234 28.702 -0.0610105 28.188 0.00186886L28.204 -0.00013114H28.205ZM22.155 13.4499C21.3639 13.4499 20.5905 13.2153 19.9327 12.7757C19.2749 12.3362 18.7622 11.7115 18.4595 10.9806C18.1567 10.2497 18.0775 9.44543 18.2319 8.66951C18.3862 7.89358 18.7672 7.18085 19.3266 6.62144C19.886 6.06203 20.5987 5.68107 21.3746 5.52673C22.1506 5.37239 22.9548 5.4516 23.6857 5.75435C24.4166 6.0571 25.0414 6.56979 25.4809 7.22759C25.9204 7.88538 26.155 8.65874 26.155 9.44987V9.46987C26.155 10.5307 25.7336 11.5482 24.9834 12.2983C24.2333 13.0484 23.2159 13.4699 22.155 13.4699V13.4499ZM11.795 27.9699C8.258 26.7429 5.522 24.0069 4.321 20.5539L4.295 20.4699C4.295 20.4699 0.0350001 22.7999 1.45 30.7949C9.445 32.2049 11.795 27.9699 11.795 27.9699V27.9699Z" fill="white"/>
</g>
<defs>
<clipPath id="clip0_1897_60564">
<rect width="32" height="32" fill="white"/>
</clipPath>
</defs>
</svg>
