<svg width="36" height="36" viewBox="0 0 36 36" fill="none" xmlns="http://www.w3.org/2000/svg">
<path d="M3.07495 19.4997H11.2905C11.5471 24.25 13.0613 28.8468 15.678 32.8197C12.4004 32.3049 9.38575 30.7184 7.10548 28.3084C4.82521 25.8984 3.40783 22.8007 3.07495 19.4997V19.4997ZM3.07495 16.4997C3.40783 13.1986 4.82521 10.101 7.10548 7.69096C9.38575 5.28096 12.4004 3.69452 15.678 3.17969C13.0613 7.1526 11.5471 11.7494 11.2905 16.4997H3.07495ZM32.925 16.4997H24.7095C24.4528 11.7494 22.9386 7.1526 20.322 3.17969C23.5996 3.69452 26.6142 5.28096 28.8944 7.69096C31.1747 10.101 32.5921 13.1986 32.925 16.4997V16.4997ZM32.925 19.4997C32.5921 22.8007 31.1747 25.8984 28.8944 28.3084C26.6142 30.7184 23.5996 32.3049 20.322 32.8197C22.9386 28.8468 24.4528 24.25 24.7095 19.4997H32.9265H32.925ZM14.295 19.4997H21.705C21.4581 23.5489 20.1829 27.4683 18 30.8877C15.817 27.4683 14.5418 23.5489 14.295 19.4997V19.4997ZM14.295 16.4997C14.5418 12.4505 15.817 8.53103 18 5.11169C20.1829 8.53103 21.4581 12.4505 21.705 16.4997H14.295Z" fill="white"/>
</svg>
