<svg width="39" height="36" viewBox="0 0 39 36" fill="none" xmlns="http://www.w3.org/2000/svg">
<g clip-path="url(#clip0_808_11121)">
<path d="M11.9272 18C9.75759 18.067 7.98303 18.9241 6.60357 20.5714H3.9116C2.81339 20.5714 1.88928 20.3002 1.13928 19.7578C0.389282 19.2154 0.0142822 18.4219 0.0142822 17.3772C0.0142822 12.6496 0.844639 10.2857 2.50535 10.2857C2.58571 10.2857 2.87701 10.4263 3.37924 10.7076C3.88147 10.9888 4.53437 11.2734 5.33794 11.5614C6.14151 11.8493 6.93839 11.9933 7.72857 11.9933C8.62589 11.9933 9.51651 11.8393 10.4004 11.5312C10.3335 12.0268 10.3 12.4687 10.3 12.8571C10.3 14.7187 10.8424 16.433 11.9272 18ZM33.4429 30.7969C33.4429 32.404 32.954 33.673 31.9763 34.6038C30.9987 35.5346 29.6995 36 28.079 36H10.521C8.90044 36 7.60134 35.5346 6.62366 34.6038C5.64598 33.673 5.15714 32.404 5.15714 30.7969C5.15714 30.0871 5.18058 29.394 5.22745 28.7176C5.27433 28.0413 5.36808 27.3114 5.5087 26.5279C5.64933 25.7444 5.82678 25.0179 6.04107 24.3482C6.25535 23.6786 6.5433 23.0257 6.90491 22.3895C7.26651 21.7533 7.68169 21.2109 8.15044 20.7623C8.61919 20.3136 9.19174 19.9554 9.86808 19.6875C10.5444 19.4196 11.2911 19.2857 12.108 19.2857C12.242 19.2857 12.5299 19.4297 12.9719 19.7176C13.4138 20.0056 13.9027 20.327 14.4384 20.6819C14.9741 21.0368 15.6906 21.3583 16.5879 21.6462C17.4853 21.9342 18.3893 22.0781 19.3 22.0781C20.2107 22.0781 21.1147 21.9342 22.012 21.6462C22.9094 21.3583 23.6259 21.0368 24.1616 20.6819C24.6973 20.327 25.1862 20.0056 25.6281 19.7176C26.0701 19.4297 26.358 19.2857 26.492 19.2857C27.3089 19.2857 28.0556 19.4196 28.7319 19.6875C29.4083 19.9554 29.9808 20.3136 30.4495 20.7623C30.9183 21.2109 31.3335 21.7533 31.6951 22.3895C32.0567 23.0257 32.3446 23.6786 32.5589 24.3482C32.7732 25.0179 32.9507 25.7444 33.0913 26.5279C33.2319 27.3114 33.3257 28.0413 33.3725 28.7176C33.4194 29.394 33.4429 30.0871 33.4429 30.7969ZM12.8714 5.14286C12.8714 6.5625 12.3692 7.77455 11.3647 8.77902C10.3603 9.78348 9.14821 10.2857 7.72857 10.2857C6.30893 10.2857 5.09687 9.78348 4.09241 8.77902C3.08794 7.77455 2.58571 6.5625 2.58571 5.14286C2.58571 3.72321 3.08794 2.51116 4.09241 1.5067C5.09687 0.502232 6.30893 0 7.72857 0C9.14821 0 10.3603 0.502232 11.3647 1.5067C12.3692 2.51116 12.8714 3.72321 12.8714 5.14286ZM27.0143 12.8571C27.0143 14.9866 26.2609 16.8047 24.7542 18.3114C23.2475 19.8181 21.4295 20.5714 19.3 20.5714C17.1705 20.5714 15.3525 19.8181 13.8458 18.3114C12.3391 16.8047 11.5857 14.9866 11.5857 12.8571C11.5857 10.7277 12.3391 8.9096 13.8458 7.4029C15.3525 5.89621 17.1705 5.14286 19.3 5.14286C21.4295 5.14286 23.2475 5.89621 24.7542 7.4029C26.2609 8.9096 27.0143 10.7277 27.0143 12.8571ZM38.5857 17.3772C38.5857 18.4219 38.2107 19.2154 37.4607 19.7578C36.7107 20.3002 35.7866 20.5714 34.6884 20.5714H31.9964C30.617 18.9241 28.8424 18.067 26.6728 18C27.7576 16.433 28.3 14.7187 28.3 12.8571C28.3 12.4687 28.2665 12.0268 28.1995 11.5312C29.0835 11.8393 29.9741 11.9933 30.8714 11.9933C31.6616 11.9933 32.4585 11.8493 33.262 11.5614C34.0656 11.2734 34.7185 10.9888 35.2208 10.7076C35.723 10.4263 36.0143 10.2857 36.0946 10.2857C37.7554 10.2857 38.5857 12.6496 38.5857 17.3772ZM36.0143 5.14286C36.0143 6.5625 35.512 7.77455 34.5076 8.77902C33.5031 9.78348 32.2911 10.2857 30.8714 10.2857C29.4518 10.2857 28.2397 9.78348 27.2353 8.77902C26.2308 7.77455 25.7286 6.5625 25.7286 5.14286C25.7286 3.72321 26.2308 2.51116 27.2353 1.5067C28.2397 0.502232 29.4518 0 30.8714 0C32.2911 0 33.5031 0.502232 34.5076 1.5067C35.512 2.51116 36.0143 3.72321 36.0143 5.14286Z" fill="white"/>
</g>
<defs>
<clipPath id="clip0_808_11121">
<rect width="38.6" height="36" fill="white"/>
</clipPath>
</defs>
</svg>
