<svg width="248" height="101" viewBox="0 0 248 101" fill="none" xmlns="http://www.w3.org/2000/svg">
<path d="M27.936 71.824V62.224H40.704V70.288C40.704 78.736 36.736 82.96 28.8 82.96H16.704C8.768 82.96 4.8 78.736 4.8 70.288V31.6C4.8 23.152 8.768 18.928 16.704 18.928H28.8C36.736 18.928 40.704 23.152 40.704 31.6V37.456H27.936V29.968C27.936 29.456 27.744 29.008 27.36 28.624C27.04 28.24 26.624 28.048 26.112 28.048H20.064C19.552 28.048 19.104 28.24 18.72 28.624C18.4 29.008 18.24 29.456 18.24 29.968V71.824C18.24 72.336 18.4 72.784 18.72 73.168C19.104 73.552 19.552 73.744 20.064 73.744H26.112C26.624 73.744 27.04 73.552 27.36 73.168C27.744 72.784 27.936 72.336 27.936 71.824ZM67.0088 56.56V82H53.5687V19.888H77.4728C85.4088 19.888 89.3767 24.112 89.3767 32.56V39.76C89.3767 44.88 87.5528 48.144 83.9048 49.552C87.1048 50.704 88.7048 53.328 88.7048 57.424V82H75.2648V58.48C75.2648 57.2 74.6568 56.56 73.4407 56.56H67.0088ZM67.0088 29.008V47.152H74.1127C74.6248 47.152 75.0408 46.96 75.3608 46.576C75.7448 46.192 75.9368 45.744 75.9368 45.232V30.928C75.9368 30.416 75.7448 29.968 75.3608 29.584C75.0408 29.2 74.6248 29.008 74.1127 29.008H67.0088Z" fill="white"/>
<path d="M191.264 36.208H178.496V31.312C178.496 30.8 178.304 30.352 177.92 29.968C177.6 29.584 177.184 29.392 176.672 29.392H171.392C170.88 29.392 170.432 29.584 170.048 29.968C169.728 30.352 169.568 30.8 169.568 31.312V42.352C169.568 42.864 169.728 43.312 170.048 43.696C170.432 44.08 170.88 44.272 171.392 44.272H180.032C187.968 44.4 191.936 48.624 191.936 56.944V70.288C191.936 78.736 187.968 82.96 180.032 82.96H168.704C160.768 82.96 156.8 78.736 156.8 70.288V63.856H169.568V70.768C169.568 71.28 169.728 71.728 170.048 72.112C170.432 72.496 170.88 72.688 171.392 72.688H177.344C177.856 72.688 178.272 72.496 178.592 72.112C178.976 71.728 179.168 71.28 179.168 70.768V58.576C179.168 58.064 178.976 57.616 178.592 57.232C178.272 56.848 177.856 56.656 177.344 56.656H168.704C160.768 56.656 156.8 52.432 156.8 43.984V31.6C156.8 23.152 160.768 18.928 168.704 18.928H179.36C187.296 18.928 191.264 23.152 191.264 31.6V36.208ZM219.009 57.616V82H205.569V19.888H219.009V45.904H229.665V19.888H243.105V82H229.665V57.616H219.009Z" fill="white"/>
</svg>
